Coordinates
version=1
nRows=39
nColumns=18
inDegrees=yes

Units are S.I. units (second, meters, Newtons, ...)
Angles are in degrees.

endheader
time	ground_thorax_rot_x	ground_thorax_rot_y	ground_thorax_rot_z	ground_thorax_tx	ground_thorax_ty	ground_thorax_tz	clav_prot	clav_elev	scapula_abduction	scapula_elevation	scapula_upward_rot	scapula_winging	plane_elv	shoulder_elv	axial_rot	elbow_flexion	pro_sup
      8.18000000	     -0.41219427	     -0.80495630	     -7.72821910	     -0.00423131	      0.00403036	     -0.00078352	    -40.36788124	      4.37087776	    -28.42461469	     -3.91517358	     36.49914644	     -7.27474158	     29.70820244	     69.03488770	     -6.17676352	      0.00000000	     34.32000000
      8.19000000	     -0.46709387	     -0.80998089	     -7.64612406	     -0.00423131	      0.00403036	     -0.00078352	    -40.22421110	      4.31316475	    -28.45917296	     -3.88913784	     36.13418020	     -7.11105713	     29.25344179	     68.72422318	     -5.96075522	      0.00000000	     34.32000000
      8.20000000	     -0.46033924	     -0.69587183	     -7.67475847	     -0.00423131	      0.00403036	     -0.00078352	    -40.40067885	      4.36878989	    -28.69872534	     -3.87372892	     36.19590418	     -7.23171721	     29.22336278	     67.76922908	     -6.56026602	      0.00000000	     34.32000000
      8.21000000	     -0.42492465	     -0.43922401	     -7.63867897	     -0.00423131	      0.00403036	     -0.00078352	    -40.45901115	      4.23548332	    -28.87796530	     -3.94359592	     36.00851191	     -7.18177440	     28.91268347	     67.55480586	     -6.26752530	      0.00000000	     34.32000000
      8.22000000	     -0.47686714	     -0.14495120	     -7.55933976	     -0.00423131	      0.00403036	     -0.00078352	    -40.59862730	      4.19116239	    -29.18938937	     -3.96189926	     35.84971972	     -7.20826838	     28.78077428	     67.09069726	     -6.09746647	      0.00000000	     34.32000000
      8.23000000	     -0.53228266	      0.07319959	     -7.42458065	     -0.00423131	      0.00403036	     -0.00078352	    -40.63652558	      4.18107445	    -29.40813996	     -3.93792302	     35.62614275	     -7.18026382	     28.49159693	     66.76210166	     -6.00836889	      0.00000000	     34.32000000
      8.24000000	     -0.57886524	      0.25699441	     -7.48899624	     -0.00423131	      0.00403036	     -0.00078352	    -40.94653980	      4.24943426	    -29.80626367	     -3.93368812	     35.74675231	     -7.38941543	     28.60240697	     65.79055973	     -6.87317598	      0.00000000	     34.32000000
      8.25000000	     -0.59413762	      0.33598480	     -7.40084782	     -0.00423131	      0.00403036	     -0.00078352	    -40.81349225	      4.21797487	    -29.84591909	     -3.89285789	     35.40905667	     -7.24170294	     28.05057321	     65.70689475	     -6.67940819	      0.00000000	     34.32000000
      8.26000000	     -0.64798583	      0.43661137	     -7.41218761	     -0.00423131	      0.00403036	     -0.00078352	    -40.79309981	      4.19001010	    -29.90151381	     -3.89055302	     35.27875406	     -7.19585160	     27.62831717	     65.06130148	     -6.67352241	      0.00000000	     34.32000000
      8.27000000	     -0.66794570	      0.56796170	     -7.38022525	     -0.00423131	      0.00403036	     -0.00078352	    -40.78458531	      4.15671680	    -29.98323206	     -3.89064012	     35.13440845	     -7.15148491	     27.32914808	     64.40630822	     -6.43223558	      0.00000000	     34.32000000
      8.28000000	     -0.70467553	      0.67691107	     -7.33330365	     -0.00423131	      0.00403036	     -0.00078352	    -40.81414033	      4.17824500	    -30.14320139	     -3.85486261	     34.98739346	     -7.14429478	     27.28401661	     63.79664130	     -6.24182100	      0.00000000	     34.32000000
      8.29000000	     -0.75848942	      0.76191485	     -7.27852786	     -0.00423131	      0.00403036	     -0.00078352	    -40.86254220	      4.27773557	    -30.38658063	     -3.75989304	     34.80306772	     -7.16444414	     27.38708104	     63.30117824	     -6.26680975	      0.00000000	     34.32000000
      8.30000000	     -0.78111610	      0.87103536	     -7.26166233	     -0.00423131	      0.00403036	     -0.00078352	    -40.95297271	      4.32578910	    -30.65442762	     -3.70847194	     34.64507141	     -7.19545886	     27.43501009	     62.85381974	     -6.39385418	      0.00000000	     34.32000000
      8.31000000	     -0.77013745	      1.02470962	     -7.25463751	     -0.00423131	      0.00403036	     -0.00078352	    -41.04682366	      4.27559164	    -30.83845315	     -3.73776852	     34.55941163	     -7.21179061	     27.26394459	     62.38407731	     -6.56986128	      0.00000000	     34.32000000
      8.32000000	     -0.78154428	      1.16247305	     -7.24027094	     -0.00423131	      0.00403036	     -0.00078352	    -41.07111855	      4.18370450	    -30.92229438	     -3.78659509	     34.44900060	     -7.17243404	     26.95784486	     61.90753352	     -6.47492801	      0.00000000	     34.32000000
      8.33000000	     -0.82569791	      1.31793887	     -7.21437672	     -0.00423131	      0.00403036	     -0.00078352	    -41.08424321	      4.20530123	    -31.03300415	     -3.75417737	     34.33492163	     -7.16293431	     26.66458061	     61.35168763	     -6.38885831	      0.00000000	     34.32000000
      8.34000000	     -0.89287169	      1.41635453	     -7.18634319	     -0.00423131	      0.00403036	     -0.00078352	    -41.07718637	      4.33706026	    -31.17576884	     -3.63776938	     34.19059309	     -7.17149819	     26.46671917	     60.77856320	     -6.47942382	      0.00000000	     34.32000000
      8.35000000	     -0.94678450	      1.39768103	     -7.13818857	     -0.00423131	      0.00403036	     -0.00078352	    -40.97638904	      4.42379433	    -31.26903294	     -3.52148743	     33.90213436	     -7.08457599	     26.23839264	     60.34019192	     -6.37440483	      0.00000000	     34.32000000
      8.36000000	     -0.94269056	      1.33059272	     -7.22442926	     -0.00423131	      0.00403036	     -0.00078352	    -41.05754190	      4.49945367	    -31.35454423	     -3.48898371	     33.98732257	     -7.16975790	     26.23612681	     59.28410281	     -7.12237550	      0.00000000	     34.32000000
      8.37000000	     -0.80355783	      1.39350145	     -7.23754177	     -0.00423131	      0.00403036	     -0.00078352	    -40.98338577	      4.34537905	    -31.31236755	     -3.56325270	     33.81756204	     -7.04602157	     25.56244320	     58.99126520	     -7.15148150	      0.00000000	     34.32000000
      8.38000000	     -0.77479165	      1.36530355	     -7.21030361	     -0.00423131	      0.00403036	     -0.00078352	    -40.86326941	      4.12819199	    -31.23330749	     -3.66578866	     33.57357054	     -6.86188410	     25.04073630	     58.55519047	     -6.84932319	      0.00000000	     34.32000000
      8.39000000	     -0.77336271	      1.31768540	     -7.20382500	     -0.00423131	      0.00403036	     -0.00078352	    -40.79080746	      3.92533782	    -31.19563546	     -3.77002421	     33.37718377	     -6.71706200	     24.65292160	     58.05843802	     -6.64565174	      0.00000000	     34.32000000
      8.40000000	     -0.79123081	      1.25647506	     -7.22855607	     -0.00423131	      0.00403036	     -0.00078352	    -40.75749727	      3.81527099	    -31.18864149	     -3.82606441	     33.26457125	     -6.64008801	     24.33231128	     57.49735776	     -6.81785454	      0.00000000	     34.32000000
      8.41000000	     -0.84237447	      1.23314149	     -7.20543878	     -0.00423131	      0.00403036	     -0.00078352	    -40.70600188	      3.82118909	    -31.24234385	     -3.78824936	     33.08838504	     -6.57759487	     24.02404640	     57.02297123	     -6.88874479	      0.00000000	     34.32000000
      8.42000000	     -0.72586822	      1.16414745	     -7.31889694	     -0.00423131	      0.00403036	     -0.00078352	    -40.66352756	      3.95127063	    -31.30985246	     -3.67333299	     32.97239854	     -6.57263993	     24.03316758	     56.65881651	     -7.04575790	      0.00000000	     34.32000000
      8.43000000	     -0.88133791	      1.33792436	     -7.17601266	     -0.00423131	      0.00403036	     -0.00078352	    -40.68809675	      4.11922254	    -31.54658173	     -3.52451011	     32.78057830	     -6.59740357	     23.77902245	     55.88890225	     -6.92036804	      0.00000000	     34.32000000
      8.44000000	     -0.84430421	      1.36440795	     -7.19344756	     -0.00423131	      0.00403036	     -0.00078352	    -40.59698807	      4.12445587	    -31.59006089	     -3.47151160	     32.53655565	     -6.49834683	     23.50831344	     55.28990172	     -6.63508524	      0.00000000	     34.32000000
      8.45000000	     -0.77529251	      1.34647266	     -7.22500194	     -0.00423131	      0.00403036	     -0.00078352	    -40.45859366	      3.99523896	    -31.49641112	     -3.51322522	     32.31639373	     -6.33783065	     23.02616719	     54.65686105	     -6.34237440	      0.00000000	     34.32000000
      8.46000000	     -0.71522720	      1.31470862	     -7.23865540	     -0.00423131	      0.00403036	     -0.00078352	    -40.32400650	      3.80529628	    -31.37417444	     -3.60087555	     32.11262665	     -6.16398239	     22.48165731	     54.03105429	     -6.07468003	      0.00000000	     34.32000000
      8.47000000	     -0.68804983	      1.27773267	     -7.23983199	     -0.00423131	      0.00403036	     -0.00078352	    -40.23323590	      3.62012351	    -31.31361524	     -3.69008352	     31.91633647	     -6.01564254	     22.03294349	     53.41386640	     -5.86927712	      0.00000000	     34.32000000
      8.48000000	     -0.69743127	      1.24139464	     -7.24540912	     -0.00423131	      0.00403036	     -0.00078352	    -40.18925536	      3.47449194	    -31.31336340	     -3.76094977	     31.75313690	     -5.91073617	     21.68638553	     52.78109041	     -5.75464345	      0.00000000	     34.32000000
      8.49000000	     -0.71538738	      1.23863975	     -7.24666076	     -0.00423131	      0.00403036	     -0.00078352	    -40.15839457	      3.39764742	    -31.33153833	     -3.79042223	     31.62571027	     -5.84228830	     21.35506138	     52.13570446	     -5.68421359	      0.00000000	     34.32000000
      8.50000000	     -0.69160178	      1.25151793	     -7.24297453	     -0.00423131	      0.00403036	     -0.00078352	    -40.08512739	      3.35298044	    -31.31537770	     -3.78915168	     31.47366475	     -5.75728191	     20.97377944	     51.51659535	     -5.57444849	      0.00000000	     34.32000000
      8.51000000	     -0.61358918	      1.22134846	     -7.24735110	     -0.00423131	      0.00403036	     -0.00078352	    -39.94132430	      3.26178383	    -31.24373428	     -3.79832282	     31.22842839	     -5.60121401	     20.53632512	     50.94705260	     -5.40496202	      0.00000000	     34.32000000
      8.52000000	     -0.51529287	      1.15219341	     -7.25399881	     -0.00423131	      0.00403036	     -0.00078352	    -39.76219716	      3.09853393	    -31.14955854	     -3.84127325	     30.90416023	     -5.38699660	     20.05272208	     50.42976625	     -5.20704911	      0.00000000	     34.32000000
      8.53000000	     -0.43848219	      1.10640888	     -7.24812083	     -0.00423131	      0.00403036	     -0.00078352	    -39.62123849	      2.87741624	    -31.08231415	     -3.93056279	     30.59294986	     -5.17590799	     19.51247025	     49.96186077	     -5.03486288	      0.00000000	     34.32000000
      8.54000000	     -0.49582505	      1.02353113	     -7.32027855	     -0.00423131	      0.00403036	     -0.00078352	    -39.55653380	      2.59171772	    -30.95727913	     -4.11037138	     30.49233283	     -5.02719697	     18.87644075	     49.28982734	     -6.19087956	      0.00000000	     34.32000000
      8.55000000	     -0.45867462	      1.04928163	     -7.25542361	     -0.00423131	      0.00403036	     -0.00078352	    -39.50022561	      2.46088573	    -31.01028062	     -4.15212919	     30.23566438	     -4.89832311	     18.48715579	     49.02044545	     -5.96356109	      0.00000000	     34.32000000
      8.56000000	     -0.45356323	      0.94056550	     -7.25804541	     -0.00423131	      0.00403036	     -0.00078352	    -39.44395688	      2.44473036	    -31.01223094	     -4.13513050	     30.10540666	     -4.83690212	     18.40195238	     48.40203108	     -6.36203386	      0.00000000	     34.32000000
